# xmcd
#
# Track frame offsets: 
#        150
#        13884
#        34032
#        52470
#        74002
#        91598
#        110218
#        128968
#        144945
#        158124
#
# Disc length: 2638 seconds
#
# Revision: 1
# Processed by: cddbd v1.5.2PL0 Copyright (c) Steve Scherf et al.
# Submitted via: ExactAudioCopy v0.99pb5
#
DISCID=910a4c0a
DTITLE=Arizona Baby - Second to None
DYEAR=2009
DGENRE=Country
TTITLE0=Shiralee
TTITLE1=The truth
TTITLE2=Ouch!
TTITLE3=Runaway
TTITLE4=A tale of the west
TTITLE5=Ballad of A
TTITLE6=Getaway
TTITLE7=Dirge
TTITLE8=Muddy river
TTITLE9=X'd out
EXTD=
EXTT0=
EXTT1=
EXTT2=
EXTT3=
EXTT4=
EXTT5=
EXTT6=
EXTT7=
EXTT8=
EXTT9=
PLAYORDER=
